<?xml version="1.0" encoding="UTF-8"?>
<svg xmlns="http://www.w3.org/2000/svg" xmlns:xlink="http://www.w3.org/1999/xlink" width="100px" height="32px" viewBox="0 0 100 32" version="1.1">
<defs>
<clipPath id="clip1">
  <path d="M 35.578125 9.539062 L 99.769531 9.539062 L 99.769531 16.738281 L 35.578125 16.738281 Z M 35.578125 9.539062 "/>
</clipPath>
<clipPath id="clip2">
  <path d="M 35.578125 18.433594 L 73.265625 18.433594 L 73.265625 22.53125 L 35.578125 22.53125 Z M 35.578125 18.433594 "/>
</clipPath>
<clipPath id="clip3">
  <path d="M 0.109375 0.0351562 L 32.179688 0.0351562 L 32.179688 32 L 0.109375 32 Z M 0.109375 0.0351562 "/>
</clipPath>
<clipPath id="clip4">
  <path d="M 6.46875 16 L 17 16 L 17 21.429688 L 6.46875 21.429688 Z M 6.46875 16 "/>
</clipPath>
<clipPath id="clip5">
  <path d="M 15 10.644531 L 25.820312 10.644531 L 25.820312 16 L 15 16 Z M 15 10.644531 "/>
</clipPath>
</defs>
<g id="surface1">
<g clip-path="url(#clip1)" clip-rule="nonzero">
<path style=" stroke:none;fill-rule:nonzero;fill:rgb(0.392157%,4.705882%,50.196078%);fill-opacity:1;" d="M 36.886719 13.738281 L 36.886719 16.652344 L 35.578125 16.652344 L 35.578125 9.664062 L 37.0625 9.664062 L 38.742188 12.578125 C 39.019531 13.054688 39.265625 13.496094 39.484375 13.910156 C 39.703125 14.320312 39.847656 14.613281 39.925781 14.785156 L 40.039062 15.046875 C 39.984375 14.472656 39.957031 13.648438 39.957031 12.578125 L 39.957031 9.664062 L 41.273438 9.664062 L 41.273438 16.652344 L 39.78125 16.652344 L 38.078125 13.75 C 37.808594 13.292969 37.566406 12.855469 37.347656 12.4375 C 37.128906 12.019531 36.980469 11.714844 36.898438 11.53125 L 36.773438 11.238281 C 36.847656 11.894531 36.886719 12.730469 36.886719 13.738281 Z M 46.886719 15.585938 L 46.886719 16.652344 L 42.714844 16.652344 L 42.714844 9.664062 L 46.84375 9.664062 L 46.84375 10.730469 L 44.03125 10.730469 L 44.03125 12.628906 L 46.53125 12.628906 L 46.53125 13.6875 L 44.03125 13.6875 L 44.03125 15.585938 Z M 50.058594 13.695312 L 49.964844 13.996094 L 51.933594 13.996094 L 51.84375 13.6875 C 51.609375 12.941406 51.414062 12.3125 51.265625 11.804688 C 51.117188 11.296875 51.027344 10.976562 50.992188 10.84375 L 50.949219 10.636719 C 50.886719 10.984375 50.589844 12.003906 50.058594 13.695312 Z M 49.625 15.066406 L 49.125 16.652344 L 47.757812 16.652344 L 50.117188 9.664062 L 51.8125 9.664062 L 54.175781 16.652344 L 52.765625 16.652344 L 52.269531 15.066406 Z M 57.335938 10.742188 L 56.488281 10.742188 L 56.488281 13.023438 L 57.359375 13.023438 C 57.757812 13.023438 58.058594 12.921875 58.261719 12.714844 C 58.460938 12.511719 58.5625 12.226562 58.5625 11.859375 C 58.5625 11.5 58.457031 11.226562 58.246094 11.03125 C 58.035156 10.839844 57.730469 10.742188 57.335938 10.742188 Z M 56.488281 14.101562 L 56.488281 16.652344 L 55.179688 16.652344 L 55.179688 9.664062 L 57.335938 9.664062 C 58.132812 9.664062 58.757812 9.863281 59.210938 10.265625 C 59.664062 10.664062 59.890625 11.199219 59.890625 11.871094 C 59.882812 12.371094 59.761719 12.789062 59.527344 13.128906 C 59.292969 13.472656 58.96875 13.726562 58.5625 13.894531 L 60.355469 16.652344 L 58.789062 16.652344 L 57.203125 14.101562 Z M 66.007812 14.277344 L 65.097656 14.277344 L 65.097656 16.652344 L 63.789062 16.652344 L 63.789062 9.664062 L 65.976562 9.664062 C 66.765625 9.664062 67.394531 9.875 67.871094 10.304688 C 68.34375 10.734375 68.582031 11.285156 68.582031 11.953125 C 68.582031 12.667969 68.335938 13.230469 67.847656 13.648438 C 67.363281 14.070312 66.75 14.277344 66.007812 14.277344 Z M 65.863281 10.730469 L 65.097656 10.730469 L 65.097656 13.21875 L 65.832031 13.21875 C 66.308594 13.21875 66.664062 13.105469 66.902344 12.878906 C 67.136719 12.648438 67.253906 12.34375 67.253906 11.953125 C 67.253906 11.574219 67.136719 11.273438 66.902344 11.054688 C 66.664062 10.839844 66.320312 10.730469 65.863281 10.730469 Z M 75.882812 13.136719 C 75.882812 14.214844 75.582031 15.082031 74.984375 15.742188 C 74.386719 16.398438 73.585938 16.726562 72.585938 16.726562 C 71.582031 16.726562 70.78125 16.398438 70.179688 15.742188 C 69.578125 15.082031 69.277344 14.214844 69.277344 13.136719 C 69.277344 12.050781 69.574219 11.179688 70.171875 10.523438 C 70.769531 9.867188 71.570312 9.539062 72.574219 9.539062 C 73.589844 9.539062 74.394531 9.863281 74.992188 10.515625 C 75.585938 11.171875 75.882812 12.042969 75.882812 13.136719 Z M 70.675781 13.136719 C 70.675781 13.871094 70.847656 14.449219 71.195312 14.878906 C 71.539062 15.308594 72.003906 15.523438 72.585938 15.523438 C 73.171875 15.523438 73.636719 15.308594 73.972656 14.882812 C 74.3125 14.460938 74.480469 13.875 74.480469 13.136719 C 74.480469 12.398438 74.3125 11.8125 73.972656 11.382812 C 73.636719 10.957031 73.167969 10.742188 72.574219 10.742188 C 71.984375 10.742188 71.523438 10.957031 71.183594 11.382812 C 70.84375 11.8125 70.675781 12.398438 70.675781 13.136719 Z M 82.15625 15.015625 L 82.15625 16.320312 C 81.726562 16.597656 81.125 16.734375 80.351562 16.734375 C 79.3125 16.734375 78.457031 16.410156 77.785156 15.753906 C 77.109375 15.101562 76.773438 14.238281 76.773438 13.15625 C 76.773438 12.101562 77.105469 11.238281 77.773438 10.570312 C 78.441406 9.902344 79.300781 9.570312 80.351562 9.570312 C 81.117188 9.570312 81.714844 9.695312 82.144531 9.953125 L 82.144531 11.230469 C 81.621094 10.925781 81.039062 10.773438 80.402344 10.773438 C 79.765625 10.773438 79.234375 10.988281 78.8125 11.417969 C 78.386719 11.851562 78.171875 12.433594 78.171875 13.15625 C 78.171875 13.882812 78.386719 14.460938 78.8125 14.890625 C 79.234375 15.320312 79.789062 15.53125 80.476562 15.53125 C 81.132812 15.53125 81.691406 15.359375 82.15625 15.015625 Z M 86.335938 13.167969 L 88.9375 16.652344 L 87.289062 16.652344 L 84.78125 13.1875 L 87.195312 9.664062 L 88.761719 9.664062 Z M 84.675781 9.664062 L 84.675781 16.652344 L 83.367188 16.652344 L 83.367188 9.664062 Z M 94.050781 15.585938 L 94.050781 16.652344 L 89.882812 16.652344 L 89.882812 9.664062 L 94.011719 9.664062 L 94.011719 10.730469 L 91.199219 10.730469 L 91.199219 12.628906 L 93.699219 12.628906 L 93.699219 13.6875 L 91.199219 13.6875 L 91.199219 15.585938 Z M 99.765625 9.664062 L 99.765625 10.742188 L 97.992188 10.742188 L 97.992188 16.652344 L 96.675781 16.652344 L 96.675781 10.742188 L 94.902344 10.742188 L 94.902344 9.664062 Z M 99.765625 9.664062 "/>
</g>
<g clip-path="url(#clip2)" clip-rule="nonzero">
<path style=" stroke:none;fill-rule:nonzero;fill:rgb(0.392157%,4.705882%,50.196078%);fill-opacity:1;" d="M 36.683594 19.832031 C 37 19.832031 37.25 19.941406 37.421875 20.164062 C 37.597656 20.390625 37.6875 20.699219 37.6875 21.101562 C 37.6875 21.550781 37.574219 21.898438 37.355469 22.148438 C 37.136719 22.398438 36.832031 22.523438 36.441406 22.523438 C 36.242188 22.523438 36.046875 22.488281 35.851562 22.414062 L 35.636719 22.519531 L 35.578125 22.484375 L 35.597656 21.371094 L 35.578125 18.464844 L 35.878906 18.433594 L 35.867188 20.234375 L 35.898438 20.234375 C 36.132812 20.003906 36.394531 19.871094 36.683594 19.832031 Z M 36.457031 22.292969 C 36.753906 22.292969 36.984375 22.195312 37.152344 21.996094 C 37.320312 21.800781 37.402344 21.515625 37.402344 21.140625 C 37.402344 20.804688 37.339844 20.546875 37.210938 20.363281 C 37.082031 20.175781 36.898438 20.085938 36.660156 20.085938 C 36.378906 20.085938 36.113281 20.230469 35.867188 20.523438 L 35.863281 21.34375 L 35.867188 22.132812 C 36.078125 22.242188 36.277344 22.292969 36.457031 22.292969 Z M 38.816406 18.433594 L 38.792969 21.34375 L 38.808594 22.484375 L 38.515625 22.484375 L 38.535156 21.359375 L 38.515625 18.464844 Z M 40.785156 19.820312 C 41.128906 19.820312 41.398438 19.9375 41.59375 20.167969 C 41.789062 20.402344 41.886719 20.726562 41.886719 21.140625 C 41.886719 21.574219 41.785156 21.914062 41.578125 22.15625 C 41.375 22.398438 41.09375 22.519531 40.730469 22.519531 C 40.386719 22.519531 40.117188 22.402344 39.921875 22.167969 C 39.730469 21.9375 39.636719 21.617188 39.636719 21.203125 C 39.636719 20.769531 39.734375 20.429688 39.9375 20.183594 C 40.140625 19.941406 40.421875 19.820312 40.785156 19.820312 Z M 40.773438 20.042969 C 40.503906 20.042969 40.292969 20.140625 40.144531 20.332031 C 39.992188 20.527344 39.917969 20.796875 39.917969 21.148438 C 39.917969 21.515625 39.988281 21.800781 40.132812 21.996094 C 40.277344 22.195312 40.480469 22.292969 40.742188 22.292969 C 41.015625 22.292969 41.226562 22.199219 41.378906 22.007812 C 41.527344 21.820312 41.601562 21.546875 41.601562 21.199219 C 41.601562 20.828125 41.53125 20.542969 41.382812 20.34375 C 41.238281 20.144531 41.035156 20.042969 40.773438 20.042969 Z M 43.550781 19.820312 C 43.675781 19.820312 43.800781 19.835938 43.933594 19.875 C 44.066406 19.910156 44.183594 19.957031 44.277344 20.015625 L 44.21875 20.277344 L 44.175781 20.28125 C 44.085938 20.21875 43.984375 20.167969 43.875 20.132812 C 43.761719 20.09375 43.652344 20.074219 43.546875 20.074219 C 43.296875 20.074219 43.097656 20.171875 42.953125 20.371094 C 42.808594 20.570312 42.738281 20.839844 42.738281 21.179688 C 42.738281 21.515625 42.8125 21.78125 42.957031 21.976562 C 43.101562 22.171875 43.304688 22.269531 43.558594 22.269531 C 43.671875 22.269531 43.792969 22.25 43.914062 22.210938 C 44.039062 22.171875 44.148438 22.117188 44.25 22.050781 L 44.289062 22.074219 L 44.261719 22.328125 C 44.15625 22.386719 44.039062 22.433594 43.914062 22.46875 C 43.78125 22.503906 43.65625 22.519531 43.527344 22.519531 C 43.199219 22.519531 42.9375 22.398438 42.742188 22.160156 C 42.550781 21.921875 42.453125 21.601562 42.453125 21.191406 C 42.453125 20.773438 42.554688 20.441406 42.75 20.191406 C 42.945312 19.945312 43.210938 19.820312 43.550781 19.820312 Z M 45.242188 18.433594 L 45.21875 21.34375 L 45.234375 22.484375 L 44.941406 22.484375 L 44.957031 21.359375 L 44.941406 18.464844 Z M 46.792969 19.859375 L 45.675781 21.070312 C 46.050781 21.535156 46.449219 21.988281 46.875 22.425781 L 46.875 22.46875 C 46.835938 22.488281 46.789062 22.5 46.730469 22.511719 C 46.671875 22.519531 46.632812 22.527344 46.613281 22.53125 L 46.574219 22.519531 C 46.125 22.03125 45.71875 21.558594 45.363281 21.105469 L 45.363281 21.070312 L 46.28125 20.074219 L 46.433594 19.859375 Z M 48.207031 19.820312 C 48.328125 19.820312 48.457031 19.835938 48.589844 19.875 C 48.722656 19.910156 48.835938 19.957031 48.933594 20.015625 L 48.875 20.277344 L 48.828125 20.28125 C 48.742188 20.21875 48.640625 20.167969 48.53125 20.132812 C 48.417969 20.09375 48.308594 20.074219 48.199219 20.074219 C 47.949219 20.074219 47.753906 20.171875 47.609375 20.371094 C 47.464844 20.570312 47.394531 20.839844 47.394531 21.179688 C 47.394531 21.515625 47.464844 21.78125 47.613281 21.976562 C 47.757812 22.171875 47.957031 22.269531 48.210938 22.269531 C 48.328125 22.269531 48.445312 22.25 48.570312 22.210938 C 48.691406 22.171875 48.804688 22.117188 48.90625 22.050781 L 48.945312 22.074219 L 48.914062 22.328125 C 48.8125 22.386719 48.695312 22.433594 48.566406 22.46875 C 48.4375 22.503906 48.308594 22.519531 48.183594 22.519531 C 47.851562 22.519531 47.589844 22.398438 47.398438 22.160156 C 47.207031 21.921875 47.109375 21.601562 47.109375 21.191406 C 47.109375 20.773438 47.207031 20.441406 47.40625 20.191406 C 47.601562 19.945312 47.867188 19.820312 48.207031 19.820312 Z M 50.722656 19.824219 C 50.992188 19.824219 51.195312 19.894531 51.339844 20.03125 C 51.480469 20.167969 51.550781 20.359375 51.546875 20.609375 L 51.535156 21.347656 L 51.546875 22.484375 L 51.246094 22.484375 L 51.269531 20.667969 C 51.269531 20.484375 51.222656 20.339844 51.128906 20.238281 C 51.035156 20.136719 50.898438 20.085938 50.726562 20.085938 C 50.453125 20.085938 50.171875 20.242188 49.878906 20.558594 L 49.875 21.34375 L 49.890625 22.484375 L 49.597656 22.484375 L 49.613281 21.359375 L 49.597656 18.464844 L 49.898438 18.433594 L 49.878906 20.269531 L 49.914062 20.269531 C 50.042969 20.144531 50.179688 20.039062 50.320312 19.964844 C 50.460938 19.886719 50.59375 19.839844 50.722656 19.824219 Z M 53.304688 19.820312 C 53.539062 19.820312 53.722656 19.878906 53.851562 20 C 53.984375 20.117188 54.050781 20.28125 54.050781 20.496094 C 54.050781 20.574219 54.046875 20.683594 54.039062 20.8125 C 54.03125 20.949219 54.023438 21.089844 54.019531 21.238281 C 53.996094 21.675781 53.984375 21.925781 53.984375 21.984375 C 53.984375 22.082031 54 22.152344 54.027344 22.191406 C 54.058594 22.234375 54.105469 22.253906 54.175781 22.253906 C 54.246094 22.253906 54.316406 22.234375 54.394531 22.195312 L 54.433594 22.226562 L 54.402344 22.414062 C 54.308594 22.472656 54.210938 22.503906 54.105469 22.507812 C 53.875 22.5 53.753906 22.355469 53.742188 22.074219 L 53.714844 22.074219 C 53.496094 22.324219 53.269531 22.472656 53.035156 22.519531 C 52.804688 22.519531 52.621094 22.457031 52.492188 22.335938 C 52.359375 22.214844 52.296875 22.046875 52.296875 21.832031 C 52.296875 21.523438 52.464844 21.328125 52.804688 21.25 L 53.761719 21.027344 L 53.773438 20.558594 C 53.773438 20.394531 53.726562 20.265625 53.640625 20.179688 C 53.550781 20.09375 53.425781 20.050781 53.265625 20.050781 C 53.019531 20.050781 52.75 20.175781 52.457031 20.425781 L 52.421875 20.40625 L 52.375 20.195312 C 52.691406 19.945312 53 19.820312 53.304688 19.820312 Z M 53.753906 21.238281 L 52.859375 21.453125 C 52.664062 21.5 52.566406 21.613281 52.566406 21.796875 C 52.566406 21.945312 52.605469 22.058594 52.6875 22.140625 C 52.769531 22.222656 52.878906 22.265625 53.023438 22.265625 C 53.136719 22.265625 53.257812 22.226562 53.378906 22.144531 C 53.5 22.0625 53.617188 21.949219 53.730469 21.796875 Z M 55.144531 22.484375 L 55.15625 21.359375 L 55.152344 19.882812 L 55.4375 19.847656 L 55.433594 21.34375 L 55.4375 22.484375 Z M 55.292969 18.746094 C 55.355469 18.746094 55.402344 18.765625 55.4375 18.796875 C 55.46875 18.832031 55.484375 18.878906 55.484375 18.9375 C 55.484375 19 55.46875 19.046875 55.433594 19.082031 C 55.398438 19.121094 55.351562 19.140625 55.289062 19.140625 C 55.226562 19.140625 55.179688 19.121094 55.148438 19.089844 C 55.117188 19.058594 55.097656 19.011719 55.097656 18.949219 C 55.097656 18.886719 55.117188 18.839844 55.152344 18.800781 C 55.183594 18.765625 55.234375 18.746094 55.292969 18.746094 Z M 58.140625 22.484375 L 58.15625 20.667969 C 58.160156 20.484375 58.113281 20.339844 58.019531 20.238281 C 57.925781 20.136719 57.792969 20.085938 57.621094 20.085938 C 57.480469 20.085938 57.339844 20.125 57.191406 20.207031 C 57.046875 20.292969 56.90625 20.410156 56.773438 20.5625 L 56.765625 21.34375 L 56.785156 22.484375 L 56.484375 22.484375 L 56.5 21.359375 L 56.488281 19.882812 L 56.773438 19.847656 L 56.773438 20.269531 L 56.800781 20.269531 C 56.929688 20.144531 57.066406 20.039062 57.207031 19.964844 C 57.347656 19.886719 57.484375 19.839844 57.613281 19.824219 C 57.878906 19.824219 58.082031 19.894531 58.226562 20.03125 C 58.367188 20.167969 58.4375 20.359375 58.433594 20.609375 L 58.425781 21.347656 L 58.4375 22.484375 Z M 60.289062 19.84375 L 60.351562 20.148438 L 60.917969 22.140625 L 60.945312 22.140625 L 61.585938 20.160156 L 61.675781 19.859375 L 61.972656 19.859375 L 62.039062 20.148438 L 62.597656 22.140625 L 62.625 22.140625 L 63.273438 20.160156 L 63.351562 19.859375 L 63.628906 19.859375 L 62.742188 22.484375 L 62.445312 22.484375 L 61.824219 20.269531 L 61.789062 20.269531 L 61.066406 22.484375 L 60.769531 22.484375 L 60.007812 19.871094 Z M 64.859375 19.820312 C 65.09375 19.820312 65.277344 19.878906 65.40625 20 C 65.535156 20.117188 65.601562 20.28125 65.601562 20.496094 C 65.601562 20.574219 65.597656 20.683594 65.589844 20.8125 C 65.582031 20.949219 65.578125 21.089844 65.574219 21.238281 C 65.550781 21.675781 65.539062 21.925781 65.539062 21.984375 C 65.539062 22.082031 65.554688 22.152344 65.582031 22.191406 C 65.609375 22.234375 65.660156 22.253906 65.730469 22.253906 C 65.796875 22.253906 65.871094 22.234375 65.949219 22.195312 L 65.988281 22.226562 L 65.953125 22.414062 C 65.863281 22.472656 65.765625 22.503906 65.660156 22.507812 C 65.429688 22.5 65.308594 22.355469 65.296875 22.074219 L 65.269531 22.074219 C 65.046875 22.324219 64.820312 22.472656 64.585938 22.519531 C 64.355469 22.519531 64.175781 22.457031 64.042969 22.335938 C 63.914062 22.214844 63.847656 22.046875 63.847656 21.832031 C 63.847656 21.523438 64.019531 21.328125 64.355469 21.25 L 65.3125 21.027344 L 65.324219 20.558594 C 65.324219 20.394531 65.28125 20.265625 65.191406 20.179688 C 65.105469 20.09375 64.980469 20.050781 64.816406 20.050781 C 64.570312 20.050781 64.300781 20.175781 64.011719 20.425781 L 63.976562 20.40625 L 63.929688 20.195312 C 64.246094 19.945312 64.554688 19.820312 64.859375 19.820312 Z M 65.308594 21.238281 L 64.414062 21.453125 C 64.21875 21.5 64.121094 21.613281 64.121094 21.796875 C 64.121094 21.945312 64.160156 22.058594 64.242188 22.140625 C 64.320312 22.222656 64.433594 22.265625 64.574219 22.265625 C 64.691406 22.265625 64.808594 22.226562 64.929688 22.144531 C 65.050781 22.0625 65.167969 21.949219 65.285156 21.796875 Z M 67.019531 18.433594 L 67 21.34375 L 67.015625 22.484375 L 66.722656 22.484375 L 66.738281 21.359375 L 66.722656 18.464844 Z M 68.398438 18.433594 L 68.378906 21.34375 L 68.394531 22.484375 L 68.101562 22.484375 L 68.117188 21.359375 L 68.101562 18.464844 Z M 70.355469 19.820312 C 70.644531 19.820312 70.867188 19.90625 71.027344 20.074219 C 71.1875 20.246094 71.265625 20.488281 71.265625 20.792969 C 71.265625 20.871094 71.261719 20.949219 71.25 21.03125 L 71.203125 21.082031 L 69.496094 21.09375 L 69.496094 21.179688 C 69.496094 21.523438 69.574219 21.789062 69.730469 21.984375 C 69.882812 22.175781 70.101562 22.269531 70.382812 22.269531 C 70.523438 22.269531 70.660156 22.25 70.792969 22.203125 C 70.925781 22.160156 71.046875 22.101562 71.152344 22.023438 L 71.191406 22.046875 L 71.152344 22.304688 C 70.902344 22.449219 70.632812 22.519531 70.347656 22.519531 C 70 22.519531 69.722656 22.402344 69.523438 22.164062 C 69.320312 21.929688 69.21875 21.605469 69.21875 21.191406 C 69.21875 20.914062 69.265625 20.671875 69.355469 20.464844 C 69.449219 20.257812 69.582031 20.097656 69.753906 19.988281 C 69.925781 19.875 70.128906 19.820312 70.355469 19.820312 Z M 70.976562 20.851562 L 70.988281 20.753906 C 70.988281 20.53125 70.933594 20.355469 70.820312 20.230469 C 70.710938 20.105469 70.550781 20.042969 70.347656 20.042969 C 70.128906 20.042969 69.945312 20.117188 69.800781 20.265625 C 69.65625 20.414062 69.558594 20.617188 69.519531 20.875 Z M 72.78125 22.253906 C 72.917969 22.253906 73.0625 22.210938 73.214844 22.121094 L 73.25 22.148438 L 73.222656 22.359375 C 73.027344 22.457031 72.855469 22.511719 72.703125 22.515625 C 72.503906 22.492188 72.355469 22.421875 72.257812 22.300781 C 72.160156 22.1875 72.113281 22.019531 72.113281 21.796875 L 72.125 21.277344 L 72.121094 20.078125 L 71.761719 20.078125 L 71.738281 20.050781 L 71.761719 19.867188 L 72.121094 19.867188 L 72.121094 19.339844 L 72.375 19.238281 L 72.40625 19.265625 L 72.402344 19.867188 L 73.238281 19.867188 L 73.261719 19.894531 L 73.238281 20.078125 L 72.402344 20.078125 L 72.386719 21.769531 C 72.386719 21.933594 72.417969 22.058594 72.484375 22.136719 C 72.546875 22.214844 72.648438 22.253906 72.78125 22.253906 Z M 72.78125 22.253906 "/>
</g>
<g clip-path="url(#clip3)" clip-rule="nonzero">
<path style="fill-rule:nonzero;fill:rgb(0.392157%,4.705882%,50.196078%);fill-opacity:1;stroke-width:1;stroke-linecap:butt;stroke-linejoin:miter;stroke:rgb(100%,100%,100%);stroke-opacity:1;stroke-miterlimit:4;" d="M -0.0044832 98.802418 C -0.0044832 44.238452 44.233969 -0.000000000000014324 98.797935 -0.000000000000014324 C 153.361902 -0.000000000000014324 197.600353 44.238452 197.600353 98.802418 C 197.600353 153.366385 153.361902 197.604837 98.797935 197.604837 C 44.233969 197.604837 -0.0044832 153.366385 -0.0044832 98.802418 Z M 98.797935 193.585347 C 151.147572 193.585347 193.604933 151.152055 193.604933 98.802418 C 193.604933 46.452781 151.147572 3.995421 98.797935 3.995421 C 46.448298 3.995421 3.990937 46.452781 3.990937 98.802418 C 3.990937 151.152055 46.448298 193.585347 98.797935 193.585347 Z M 98.797935 193.585347 " transform="matrix(0.162295,0,0,0.162295,0.110103,0.000000000000002325)"/>
</g>
<g clip-path="url(#clip4)" clip-rule="nonzero">
<path style=" stroke:none;fill-rule:nonzero;fill:rgb(0.392157%,4.705882%,50.196078%);fill-opacity:1;" d="M 14.527344 16.570312 C 13.53125 16.570312 12.679688 17.171875 12.304688 18.027344 L 11.121094 18.027344 C 10.746094 17.167969 9.890625 16.570312 8.894531 16.570312 C 7.554688 16.570312 6.46875 17.660156 6.46875 19 C 6.46875 20.339844 7.554688 21.425781 8.894531 21.425781 C 9.890625 21.425781 10.746094 20.828125 11.121094 19.96875 L 12.304688 19.96875 C 12.679688 20.828125 13.53125 21.425781 14.527344 21.425781 C 15.867188 21.425781 16.957031 20.339844 16.957031 19 C 16.957031 17.660156 15.867188 16.570312 14.527344 16.570312 Z M 8.894531 19.96875 C 8.359375 19.96875 7.925781 19.535156 7.925781 19 C 7.925781 18.460938 8.359375 18.027344 8.894531 18.027344 C 9.433594 18.027344 9.867188 18.460938 9.867188 19 C 9.867188 19.535156 9.433594 19.96875 8.894531 19.96875 Z M 14.527344 19.96875 C 13.992188 19.96875 13.558594 19.535156 13.558594 19 C 13.558594 18.460938 13.992188 18.027344 14.527344 18.027344 C 15.0625 18.027344 15.5 18.460938 15.5 19 C 15.5 19.535156 15.0625 19.96875 14.527344 19.96875 Z M 14.527344 19.96875 "/>
</g>
<path style=" stroke:none;fill-rule:nonzero;fill:rgb(0.392157%,4.705882%,50.196078%);fill-opacity:1;" d="M 8.894531 18.460938 C 8.597656 18.460938 8.359375 18.703125 8.359375 19 C 8.359375 19.007812 8.359375 19.015625 8.359375 19.027344 C 8.375 19.3125 8.609375 19.535156 8.894531 19.535156 C 9.191406 19.535156 9.433594 19.296875 9.433594 19 C 9.433594 18.703125 9.191406 18.460938 8.894531 18.460938 Z M 8.894531 18.460938 "/>
<path style=" stroke:none;fill-rule:nonzero;fill:rgb(0.392157%,4.705882%,50.196078%);fill-opacity:1;" d="M 15.070312 19 C 15.070312 19.296875 14.828125 19.539062 14.527344 19.539062 C 14.226562 19.539062 13.984375 19.296875 13.984375 19 C 13.984375 18.699219 14.226562 18.457031 14.527344 18.457031 C 14.828125 18.457031 15.070312 18.699219 15.070312 19 Z M 15.070312 19 "/>
<path style=" stroke:none;fill-rule:nonzero;fill:rgb(0.392157%,4.705882%,50.196078%);fill-opacity:1;" d="M 15.019531 16.039062 C 15.34375 16.082031 15.660156 16.1875 15.957031 16.359375 C 16.253906 16.53125 16.503906 16.753906 16.703125 17.011719 L 17.039062 16.425781 L 17.210938 16.132812 C 16.890625 16.089844 16.570312 15.984375 16.273438 15.8125 C 15.976562 15.640625 15.722656 15.417969 15.527344 15.160156 L 15.191406 15.746094 Z M 15.019531 16.039062 "/>
<g clip-path="url(#clip5)" clip-rule="nonzero">
<path style=" stroke:none;fill-rule:nonzero;fill:rgb(0.392157%,4.705882%,50.196078%);fill-opacity:1;" d="M 23.394531 10.644531 C 22.398438 10.644531 21.542969 11.242188 21.167969 12.097656 L 19.984375 12.097656 C 19.609375 11.242188 18.757812 10.644531 17.761719 10.644531 C 16.421875 10.644531 15.332031 11.730469 15.332031 13.070312 C 15.332031 14.410156 16.421875 15.496094 17.761719 15.496094 C 18.757812 15.496094 19.613281 14.898438 19.984375 14.042969 L 21.167969 14.042969 C 21.542969 14.898438 22.398438 15.496094 23.394531 15.496094 C 24.734375 15.496094 25.820312 14.410156 25.820312 13.070312 C 25.820312 11.730469 24.734375 10.644531 23.394531 10.644531 Z M 17.761719 14.042969 C 17.226562 14.042969 16.789062 13.605469 16.789062 13.070312 C 16.789062 12.535156 17.226562 12.097656 17.761719 12.097656 C 18.296875 12.097656 18.730469 12.535156 18.734375 13.070312 C 18.730469 13.605469 18.296875 14.042969 17.761719 14.042969 Z M 23.394531 14.042969 C 22.855469 14.042969 22.421875 13.605469 22.421875 13.070312 C 22.421875 12.535156 22.855469 12.097656 23.394531 12.097656 C 23.929688 12.097656 24.367188 12.535156 24.363281 13.070312 L 24.367188 13.070312 C 24.367188 13.605469 23.929688 14.042969 23.394531 14.042969 Z M 23.394531 14.042969 "/>
</g>
<path style=" stroke:none;fill-rule:nonzero;fill:rgb(0.392157%,4.705882%,50.196078%);fill-opacity:1;" d="M 23.394531 12.53125 C 23.097656 12.53125 22.855469 12.773438 22.855469 13.070312 C 22.855469 13.367188 23.097656 13.609375 23.394531 13.609375 C 23.691406 13.609375 23.929688 13.367188 23.929688 13.070312 C 23.929688 13.0625 23.929688 13.050781 23.929688 13.042969 C 23.917969 12.757812 23.679688 12.53125 23.394531 12.53125 Z M 23.394531 12.53125 "/>
<path style=" stroke:none;fill-rule:nonzero;fill:rgb(0.392157%,4.705882%,50.196078%);fill-opacity:1;" d="M 18.304688 13.070312 C 18.304688 13.371094 18.0625 13.613281 17.761719 13.613281 C 17.460938 13.613281 17.21875 13.371094 17.21875 13.070312 C 17.21875 12.769531 17.460938 12.527344 17.761719 12.527344 C 18.0625 12.527344 18.304688 12.769531 18.304688 13.070312 Z M 18.304688 13.070312 "/>
</g>
</svg>
